:SAMPLES-PER-SECOND 30
:FULLY-SPECIFIED
:DEGREES
432
root  -32.974 39.6825 -2.32108 -38.3095 -81.7201 44.5665
RightUpLeg  -27.9355 -13.1562 -6.60565
RightLeg  8.43761 -15.6939 5.77374
RightFoot  12.436 1.67543 -7.53435
RightToes  0.000482159 0.542163 -0.142577
Spine  49.5441 -3.13008 7.01846
Spine1  10.569 0.610018 -3.95855
HEad  -27.251 -2.82688 0.0636302
LeftShoulder1  12.4834 -22.6387 -41.3238
LeftArm  -13.8175 -24.9494 -30.7604
LeftForeArm  29.4903 -10.1394 -5.65266
LeftHand  -0.25398 0.0180481 5.50724
RightShoulder  6.85231 14.6887 31.6935
RightArm  -10.854 44.6947 21.3323
RightForeArm  1.02566 4.31381 9.3654
RightHand  -6.37374 15.6037 -34.6421
LeftUpLeg  -28.9923 10.8054 -6.72384
LeftLeg  28.121 5.90154 3.72606
LeftFoot  -3.68326 0.371211 -5.31318
LeftToes  1.06246e-005 4.65854e-005 -8.18503e-006
433
root  -32.53 39.6022 -2.24976 -36.0768 -81.1347 40.9408
RightUpLeg  -26.7457 -13.2526 -7.19621
RightLeg  7.94443 -16.1058 5.73772
RightFoot  13.1202 1.63952 -7.13094
RightToes  0.000482159 0.542163 -0.142577
Spine  47.4586 -2.90699 7.39244
Spine1  10.8443 0.727771 -3.2979
HEad  -26.0563 -3.15428 -0.690939
LeftShoulder1  12.9262 -21.8794 -44.2807
LeftArm  -11.2824 -18.7008 -29.389
LeftForeArm  30.4654 -10.2408 -6.16451
LeftHand  -0.25398 0.0180481 5.50724
RightShoulder  6.94229 14.4429 32.7155
RightArm  -6.81574 38.0552 23.3631
RightForeArm  -1.21512 5.29184 10.0416
RightHand  -5.68208 14.0802 -33.3918
LeftUpLeg  -26.5403 8.32787 -5.58648
LeftLeg  34.362 8.09784 6.22574
LeftFoot  -6.53234 0.248649 -5.02806
LeftToes  1.06246e-005 4.65854e-005 -8.18503e-006
434
root  -32.0347 39.4955 -2.12212 -34.7877 -80.8432 38.2809
RightUpLeg  -25.6742 -13.4499 -7.60606
RightLeg  7.34041 -16.3346 5.811
RightFoot  14.0236 1.6231 -6.76829
RightToes  0.000482159 0.542163 -0.142577
Spine  45.6713 -2.77358 7.68724
Spine1  10.6525 0.852956 -2.97698
HEad  -24.6986 -3.33714 -1.38786
LeftShoulder1  13.1663 -21.0892 -46.6618
LeftArm  -9.50451 -12.5017 -27.6384
LeftForeArm  31.2726 -10.3298 -6.40466
LeftHand  -0.25398 0.0180481 5.50724
RightShoulder  7.06088 14.2205 33.8671
RightArm  -3.18657 30.9485 24.9861
RightForeArm  -3.54945 6.41339 10.5549
RightHand  -5.21217 13.0845 -32.3508
LeftUpLeg  -23.363 6.76615 -4.76349
LeftLeg  38.8582 7.71744 6.98252
LeftFoot  -9.55523 0.134343 -4.78275
LeftToes  1.06246e-005 4.65854e-005 -8.18503e-006
435
root  -31.485 39.3497 -1.94601 -35.2254 -80.8974 37.5493
RightUpLeg  -24.9456 -13.5868 -7.93817
RightLeg  6.67222 -16.1339 6.00939
RightFoot  15.0376 1.6121 -6.42298
RightToes  0.000482159 0.542163 -0.142577
Spine  43.9483 -2.52788 7.61372
Spine1  10.1425 0.996886 -2.84506
HEad  -22.7739 -2.94061 -2.34634
LeftShoulder1  13.2035 -20.2661 -48.4642
LeftArm  -9.09513 -6.39506 -25.812
LeftForeArm  31.904 -10.556 -6.207
LeftHand  -0.25398 0.0180481 5.50724
RightShoulder  7.05708 13.8914 34.5938
RightArm  -0.0675857 23.0696 27.108
RightForeArm  -5.91416 8.02129 10.6115
RightHand  -4.94612 12.7028 -31.4142
LeftUpLeg  -19.7821 6.1376 -4.33231
LeftLeg  41.5099 7.41652 7.36286
LeftFoot  -11.8055 0.0528442 -4.12871
LeftToes  1.06246e-005 4.65854e-005 -8.18503e-006
436
root  -30.8915 39.1568 -1.73108 -35.0261 -81.0878 36.5
RightUpLeg  -24.6267 -13.6203 -8.13462
RightLeg  5.93362 -15.8164 6.2294
RightFoot  16.0284 1.54728 -5.88799
RightToes  0.000482159 0.542163 -0.142577
Spine  41.8512 -2.19723 7.40882
Spine1  9.51952 1.06864 -2.53918
HEad  -20.0376 -2.151 -3.33165
LeftShoulder1  13.1048 -19.318 -50.1176
LeftArm  -9.78706 -0.794747 -23.8296
LeftForeArm  31.7185 -10.876 -5.71612
LeftHand  -0.25398 0.0180481 5.50724
RightShoulder  6.80934 13.146 34.9239
RightArm  2.39521 13.9825 29.853
RightForeArm  -9.52822 10.8656 9.9322
RightHand  -5.02383 12.9948 -31.3929
LeftUpLeg  -16.1922 5.87846 -3.89623
LeftLeg  42.7254 7.07129 7.32793
LeftFoot  -12.802 0.0119599 -5.02671
LeftToes  1.06246e-005 4.65854e-005 -8.18503e-006
437
root  -30.2508 38.9415 -1.48903 -32.9759 -81.172 33.6919
RightUpLeg  -24.3144 -13.5808 -8.3027
RightLeg  4.87193 -16.1527 6.44502
RightFoot  17.1205 1.4049 -5.06717
RightToes  0.000482159 0.542163 -0.142577
Spine  39.2522 -1.94028 7.20576
Spine1  9.25346 0.987964 -2.06147
HEad  -16.7702 -1.3532 -3.59017
LeftShoulder1  12.8652 -18.3387 -51.3985
LeftArm  -11.1488 4.21189 -22.1325
LeftForeArm  30.1919 -11.5537 -5.03241
LeftHand  -0.25398 0.0180481 5.50724
RightShoulder  6.44892 12.0249 35.5554
RightArm  4.36654 4.06463 32.3226
RightForeArm  -14.4243 14.63 8.59619
RightHand  -5.43396 13.7757 -32.4997
LeftUpLeg  -12.27 5.35173 -3.33262
LeftLeg  42.0695 5.40116 5.60895
LeftFoot  -14.1646 -0.0965726 -7.19314
LeftToes  1.06246e-005 4.65854e-005 -8.18503e-006
438
root  -29.5354 38.7534 -1.22623 -33.0195 -81.1742 32.6633
RightUpLeg  -23.4722 -13.6694 -8.82911
RightLeg  3.38048 -16.8223 6.70938
RightFoot  17.9886 0.945809 -3.14952
RightToes  0.000482159 0.542163 -0.142577
Spine  36.5988 -1.68391 6.38306
Spine1  9.69947 0.759313 -1.67445
HEad  -13.543 -0.683758 -2.92261
LeftShoulder1  12.5017 -17.5367 -51.8443
LeftArm  -13.0188 8.71627 -21.2864
LeftForeArm  27.328 -12.736 -4.25224
LeftHand  -0.25398 0.0180481 5.50724
RightShoulder  6.21812 11.0531 36.7122
RightArm  4.95153 -5.29085 33.7673
RightForeArm  -17.3875 17.2919 7.46917
RightHand  -5.59595 14.0096 -33.0456
LeftUpLeg  -7.67159 4.80797 -3.38238
LeftLeg  38.8693 3.09716 3.06592
LeftFoot  -17.5089 -0.299957 -7.65272
LeftToes  1.06246e-005 4.65854e-005 -8.18503e-006
439
root  -28.7031 38.6027 -0.948406 -38.9402 -81.1465 37.1047
RightUpLeg  -22.0331 -14.1458 -10.0841
RightLeg  1.79517 -16.7131 6.97582
RightFoot  17.2378 -0.360777 1.92953
RightToes  0.000482159 0.542163 -0.142577
Spine  34.4543 -1.3147 4.34265
Spine1  10.5883 0.354085 -1.44522
HEad  -10.7584 0.236539 -2.25561
LeftShoulder1  12.0696 -16.9524 -51.4922
LeftArm  -15.0382 12.4797 -21.1011
LeftForeArm  24.0464 -14.0512 -3.60777
LeftHand  -0.25398 0.0180481 5.50724
RightShoulder  6.19588 10.6308 37.7948
RightArm  3.34224 -12.701 34.4955
RightForeArm  -15.425 17.0244 7.37328
RightHand  -4.75054 12.1861 -31.0075
LeftUpLeg  -3.36602 4.8469 -4.73658
LeftLeg  34.1617 2.40406 2.0873
LeftFoot  -21.7094 -0.351074 -5.35062
LeftToes  1.06246e-005 4.65854e-005 -8.18503e-006
440
root  -27.7435 38.4504 -0.686719 -47.6597 -80.7323 44.2911
RightUpLeg  -20.1859 -15.0827 -12.0915
RightLeg  -0.0284301 -16.1362 7.31237
RightFoot  13.8535 -2.36236 11.107
RightToes  0.000482159 0.542163 -0.142577
Spine  32.8449 -0.952776 1.35591
Spine1  11.3668 -0.293285 -1.17283
HEad  -8.48897 1.62145 -2.30012
LeftShoulder1  11.5947 -16.4439 -50.7406
LeftArm  -16.5116 15.0715 -20.9032
LeftForeArm  21.9269 -15.0748 -3.25531
LeftHand  -0.25398 0.0180481 5.50724
RightShoulder  6.22872 10.5557 38.248
RightArm  -0.450985 -17.905 35.26
RightForeArm  -8.5287 14.0292 7.9055
RightHand  -3.1059 8.19553 -26.4178
LeftUpLeg  -1.21282 5.31846 -7.0181
LeftLeg  30.9577 4.01955 2.96164
LeftFoot  -24.1662 -0.106486 -2.19394
LeftToes  1.06246e-005 4.65854e-005 -8.18503e-006
441
root  -26.7241 38.2946 -0.480016 -53.2589 -79.9072 48.6635
RightUpLeg  -18.223 -16.2673 -14.3349
RightLeg  -2.24414 -16.6918 7.99696
RightFoot  9.04126 -3.69512 20.6444
RightToes  0.000482159 0.542163 -0.142577
Spine  31.3742 -0.729194 -1.71379
Spine1  11.8238 -1.03168 -0.800894
HEad  -6.70719 3.10296 -2.78474
LeftShoulder1  11.1199 -15.9228 -49.9762
LeftArm  -17.1473 16.4164 -20.3451
LeftForeArm  21.6934 -15.851 -3.10932
LeftHand  -0.25398 0.0180481 5.50724
RightShoulder  6.14051 10.3712 38.2032
RightArm  -5.1748 -21.6515 36.2604
RightForeArm  -0.357889 10.3285 7.96868
RightHand  -1.8063 4.20929 -22.0449
LeftUpLeg  -1.69864 5.73798 -9.11458
LeftLeg  31.1045 5.63872 4.02613
LeftFoot  -24.1763 0.139059 -0.0393149
LeftToes  1.06246e-005 4.65854e-005 -8.18503e-006
442
root  -25.6958 38.2651 -0.298594 -55.8538 -79.5976 50.3474
RightUpLeg  -16.841 -17.0953 -15.77
RightLeg  -3.41233 -18.6276 8.68347
RightFoot  5.68285 -3.61533 23.9806
RightToes  0.000482159 0.542163 -0.142577
Spine  30.0042 -0.609326 -3.6402
Spine1  12.1418 -1.43659 -0.615033
HEad  -5.30291 4.1269 -3.08721
LeftShoulder1  10.7114 -15.4393 -49.3715
LeftArm  -17.5905 17.0238 -19.674
LeftForeArm  22.5051 -16.6507 -3.01522
LeftHand  -0.25398 0.0180481 5.50724
RightShoulder  5.94926 9.96823 38.1121
RightArm  -8.64941 -24.7752 37.1291
RightForeArm  4.10167 7.99959 7.22924
RightHand  -1.36321 2.32384 -20.6224
LeftUpLeg  -3.03187 6.27636 -10.1301
LeftLeg  32.21 5.68107 4.21308
LeftFoot  -22.7514 0.212343 0.751193
LeftToes  1.06246e-005 4.65854e-005 -8.18503e-006
443
root  -24.6653 38.4615 -0.0810469 -59.7204 -80.46 53.4653
RightUpLeg  -17.1048 -17.9518 -15.5312
RightLeg  -0.30433 -19.0541 7.64894
RightFoot  4.73654 -2.89349 20.5353
RightToes  0.000482159 0.542163 -0.142577
Spine  28.8771 -0.536953 -3.85066
Spine1  12.3607 -1.28728 -0.946849
HEad  -3.97628 4.81588 -3.17412
LeftShoulder1  10.3624 -15.0152 -48.855
LeftArm  -18.4888 17.6219 -19.3432
LeftForeArm  22.983 -17.5318 -2.9328
LeftHand  -0.25398 0.0180481 5.50724
RightShoulder  5.77698 9.60316 38.0308
RightArm  -10.9079 -27.4582 37.5387
RightForeArm  4.76591 7.41923 6.45367
RightHand  -1.38735 2.18773 -21.2876
LeftUpLeg  -3.55941 7.46933 -10.0846
LeftLeg  31.3152 5.24367 3.80084
LeftFoot  -20.8023 0.230946 1.2901
LeftToes  1.06246e-005 4.65854e-005 -8.18503e-006
444
root  -23.6969 38.817 0.155626 -67.0998 -81.9478 60.2786
RightUpLeg  -19.2359 -22.808 -12.5161
RightLeg  7.64323 -12.0177 3.76792
RightFoot  4.67011 -2.27864 16.3313
RightToes  0.000482159 0.542163 -0.142577
Spine  27.8132 -0.543261 -3.28125
Spine1  12.2802 -0.912645 -1.63252
HEad  -2.42285 5.79918 -3.47841
LeftShoulder1  9.99509 -14.5627 -48.2987
LeftArm  -19.687 18.6303 -19.5612
LeftForeArm  22.744 -18.3913 -2.91542
LeftHand  -0.25398 0.0180481 5.50724
RightShoulder  5.64987 9.42407 37.672
RightArm  -12.3458 -29.246 37.5244
RightForeArm  4.29625 7.91653 6.05847
RightHand  -1.33931 1.96991 -21.1269
LeftUpLeg  -3.22149 9.25246 -9.61063
LeftLeg  28.3124 5.26703 3.42455
LeftFoot  -18.4059 0.249336 2.26631
LeftToes  1.06246e-005 4.65854e-005 -8.18503e-006
